<svg xmlns="http://www.w3.org/2000/svg" viewBox="0 0 128 128" fill="none">
  <rect width="128" height="128" rx="24" fill="#14532d"/>
  <circle cx="64" cy="64" r="28" fill="#22c55e" opacity="0.35"/>
  <path
    d="M64 36c8 12 20 20 32 20-12 0-24 8-32 20-8-12-20-20-32-20 12 0 24-8 32-20z"
    fill="#86efac"
  />
  <path
    d="M64 92c-8-12-20-20-32-20 12 0 24-8 32-20 8 12 20 20 32 20-12 0-24 8-32 20z"
    fill="#4ade80"
    opacity="0.95"
  />
  <circle cx="64" cy="64" r="8" fill="#f0fdf4"/>
</svg>
